<svg aria-hidden="true" style="position:absolute;width:0;height:0;overflow:hidden" xmlns="http://www.w3.org/2000/svg"><defs><symbol id="icon-done" viewBox="0 0 32 32"><path d="M16 1.375A14.623 14.623 0 0 0 5.659 26.341 14.627 14.627 0 0 0 30.626 16 14.639 14.639 0 0 0 16.001 1.375zm0 28A13.375 13.375 0 1 1 29.375 16 13.387 13.387 0 0 1 16 29.375z"/><path d="M24.9 8.93a2.133 2.133 0 0 0-3 .225l-7.25 8.41a.865.865 0 0 1-.642.304.89.89 0 0 1-.657-.269l-3.325-3.5a2.114 2.114 0 0 0-1.501-.712 2.133 2.133 0 0 0-1.555.584 2.12 2.12 0 0 0-.497 2.355c.11.263.271.502.475.701l5.61 5.895a2.13 2.13 0 0 0 1.54.66h.05a2.116 2.116 0 0 0 1.555-.74l9.415-10.915a2.13 2.13 0 0 0-.22-3z"/></symbol><symbol id="icon-user" viewBox="0 0 32 32"><path fill="#e7eced" style="fill:var(--color1, #e7eced)" d="m11.238 25.088-4.774 2.604a4.33 4.33 0 0 0-.766.545A15.924 15.924 0 0 0 16 32c3.897 0 7.467-1.395 10.242-3.71a4.227 4.227 0 0 0-.842-.564l-5.112-2.556a1.948 1.948 0 0 1-1.078-1.744V21.42c.144-.164.308-.374.484-.622a11.753 11.753 0 0 0 1.589-3.202 1.606 1.606 0 0 0 1.139-1.528v-2.141c0-.471-.209-.892-.535-1.186V9.646S22.523 4.83 16 4.83s-5.887 4.816-5.887 4.816v3.095a1.596 1.596 0 0 0-.535 1.186v2.141c0 .564.296 1.06.74 1.347.535 2.329 1.936 4.005 1.936 4.005v1.956a1.952 1.952 0 0 1-1.017 1.71z"/><path fill="#556080" style="fill:var(--color2, #556080)" d="M16.273.002C7.438-.149.153 6.891.002 15.726c-.086 5.01 2.147 9.512 5.702 12.506.232-.203.482-.389.759-.54l4.774-2.604a1.95 1.95 0 0 0 1.016-1.712V21.42s-1.401-1.676-1.936-4.005a1.606 1.606 0 0 1-.74-1.347v-2.141c0-.471.21-.892.535-1.186V9.646S9.476 4.83 15.999 4.83s5.887 4.816 5.887 4.816v3.095c.326.295.535.715.535 1.186v2.141c0 .72-.483 1.325-1.139 1.528a11.739 11.739 0 0 1-1.589 3.202c-.176.248-.34.458-.484.622v2.006a1.95 1.95 0 0 0 1.078 1.744l5.112 2.556c.307.153.584.347.839.563a15.958 15.958 0 0 0 5.758-12.015C32.148 7.439 25.109.154 16.273.003z"/></symbol></defs></svg>