<svg aria-hidden="true" style="position: absolute; width: 0; height: 0; overflow: hidden;" version="1.1" xmlns="http://www.w3.org/2000/svg" xmlns:xlink="http://www.w3.org/1999/xlink">
<defs>
<symbol id="icon-done" viewBox="0 0 32 32">
<path d="M16 1.375c-2.893 0-5.72 0.858-8.125 2.465s-4.28 3.891-5.387 6.563-1.397 5.613-0.832 8.45c0.564 2.837 1.957 5.443 4.003 7.488s4.651 3.438 7.488 4.003c2.837 0.564 5.778 0.275 8.45-0.832s4.956-2.981 6.564-5.387c1.607-2.405 2.465-5.233 2.465-8.125-0.004-3.878-1.546-7.595-4.288-10.337s-6.459-4.284-10.337-4.288v0zM16 29.375c-2.645 0-5.231-0.784-7.431-2.254s-3.914-3.559-4.926-6.003c-1.012-2.444-1.277-5.133-0.761-7.728s1.79-4.978 3.66-6.848c1.871-1.871 4.254-3.144 6.848-3.66s5.284-0.251 7.728 0.761 4.533 2.727 6.003 4.926c1.47 2.2 2.254 4.785 2.254 7.431-0.004 3.546-1.414 6.946-3.922 9.453s-5.907 3.918-9.453 3.922v0z"></path>
<path d="M24.9 8.93c-0.428-0.367-0.984-0.55-1.547-0.508s-1.085 0.306-1.453 0.733l-7.25 8.41c-0.080 0.093-0.178 0.168-0.289 0.22s-0.231 0.081-0.353 0.084c-0.122 0.003-0.244-0.019-0.357-0.065s-0.216-0.116-0.3-0.204l-3.325-3.5c-0.19-0.213-0.42-0.386-0.678-0.509s-0.537-0.191-0.823-0.203c-0.285-0.012-0.57 0.034-0.837 0.134s-0.511 0.254-0.718 0.45-0.371 0.433-0.485 0.695c-0.113 0.262-0.173 0.544-0.175 0.829s0.054 0.568 0.163 0.831c0.11 0.263 0.271 0.502 0.475 0.701l5.61 5.895c0.199 0.208 0.438 0.374 0.703 0.487s0.55 0.172 0.837 0.173h0.050c0.296-0.008 0.588-0.078 0.856-0.205s0.506-0.31 0.699-0.535l9.415-10.915c0.368-0.427 0.551-0.983 0.51-1.545s-0.304-1.085-0.73-1.455v0z"></path>
</symbol>
<symbol id="icon-user" viewBox="0 0 32 32">
<path fill="#e7eced" style="fill: var(--color1, #e7eced)" d="M11.238 25.088l-4.774 2.604c-0.28 0.153-0.532 0.341-0.766 0.545 2.783 2.347 6.376 3.763 10.302 3.763 3.897 0 7.467-1.395 10.242-3.71-0.256-0.216-0.534-0.411-0.842-0.564l-5.112-2.556c-0.661-0.33-1.078-1.005-1.078-1.744v-2.006c0.144-0.164 0.308-0.374 0.484-0.622 0.697-0.984 1.224-2.067 1.589-3.202 0.656-0.202 1.139-0.808 1.139-1.528v-2.141c0-0.471-0.209-0.892-0.535-1.186v-3.095c0 0 0.636-4.816-5.887-4.816s-5.887 4.816-5.887 4.816v3.095c-0.326 0.295-0.535 0.715-0.535 1.186v2.141c0 0.564 0.296 1.060 0.74 1.347 0.535 2.329 1.936 4.005 1.936 4.005v1.956c-0.001 0.712-0.391 1.369-1.017 1.71z"></path>
<path fill="#556080" style="fill: var(--color2, #556080)" d="M16.273 0.002c-8.835-0.151-16.12 6.889-16.271 15.724-0.086 5.010 2.147 9.512 5.702 12.506 0.232-0.203 0.482-0.389 0.759-0.54l4.774-2.604c0.626-0.342 1.016-0.998 1.016-1.712v-1.956c0 0-1.401-1.676-1.936-4.005-0.443-0.287-0.74-0.782-0.74-1.347v-2.141c0-0.471 0.21-0.892 0.535-1.186v-3.095c0 0-0.636-4.816 5.887-4.816s5.887 4.816 5.887 4.816v3.095c0.326 0.295 0.535 0.715 0.535 1.186v2.141c0 0.72-0.483 1.325-1.139 1.528-0.365 1.136-0.892 2.218-1.589 3.202-0.176 0.248-0.34 0.458-0.484 0.622v2.006c0 0.738 0.417 1.414 1.078 1.744l5.112 2.556c0.307 0.153 0.584 0.347 0.839 0.563 3.448-2.875 5.675-7.174 5.758-12.015 0.152-8.835-6.887-16.12-15.723-16.271z"></path>
</symbol>
</defs>
</svg>
